<svg xmlns="http://www.w3.org/2000/svg" height="114.79" width="117.35" viewBox="0 0 93.879979 91.835012">
 <g transform="translate(-.28775 -.11525)">
  <path fill="#fff" d="m87.746 45.704h-11.961l-1.4141 4.8672h1.8555l-5.918 9.1758-0.8164-14.043h-12.152l-1.3594 4.8555 1.8359 0.01172-7.9258 11.777-6.5312-0.03125c-0.67578 0-3.3086-0.625-3.3086-3.8203 0-3.1914 3.0977-7.8242 6.2656-7.8242l1.3203 0.03125c-0.21875 0.78125-0.68359 2.4141-0.68359 2.4141h5.8164l2.0859-7.4141-8.957-0.03906c-5.5742 0-10.07 3.9219-11.504 7.9414l2.3242-7.8789-7.9648-0.02344-1.4023 4.8672h2.0625l-2.0703 7.1484-5.2188-11.992h-7.4648l-1.3906 4.8633h2.0469l-4.6289 16.465h5.9648s2.2969-8.1719 2.8867-10.262c0.84766 1.9883 4.3438 10.262 4.3438 10.262h6.6484l3.0352-10.457c-0.27344 1.5586-0.28125 3.1875-0.0039 4.8047 0.57812 3.418 4 5.6523 7.7188 5.6523h12.055l2.0742-3.0625h8.4922l0.17969 3.0312h7.5391l1.918-3.0312h8.6914l0.34375 3.0625h5.3359l1.1836-2.3477z"/>
  <path d="m82.577 67.054-0.34375-3.0625h-8.6914l-1.918 3.0312h-7.5391l-0.17969-3.0312h-8.4922l-2.0742 3.0625h-12.055c-3.7188 0-7.1406-2.2344-7.7188-5.6523-0.27734-1.6172-0.26953-3.2461 0.0039-4.8047l-3.0352 10.457h-6.6484s-3.4961-8.2734-4.3438-10.262c-0.595 2.092-2.892 10.262-2.892 10.262h-5.9648l4.6289-16.465h-2.0469l1.3906-4.8633h7.4648l5.2188 11.992 2.0703-7.1484h-2.0625l1.4023-4.8672 7.9648 0.02344-2.3242 7.8789c1.4336-4.0195 5.9297-7.9414 11.504-7.9414l8.957 0.03906-2.0859 7.4141h-5.8164s0.46484-1.6328 0.68359-2.4141l-1.32-0.032c-3.168 0-6.2656 4.6328-6.2656 7.8242 0 3.1953 2.6328 3.8203 3.3086 3.8203l6.5312 0.03125 7.9258-11.777-1.8359-0.01172 1.3594-4.8555h12.152l0.8164 14.043 5.918-9.1758h-1.8555l1.4141-4.8672h11.961l1.3477 19.004c2.6523-5.6797 4.1406-12.035 4.1406-18.684 0-24.921-20.66-45.136-46.139-45.136-25.485 0-46.141 20.215-46.141 45.141 0 24.895 20.656 45.094 46.141 45.094 17.711 0 33.082-9.7539 40.813-24.062zm-5.2422-8.2539 4.6172-6.8281 0.23047 6.8281zm-18.496 0.09375 4.6133-6.8594 0.25 6.8594z" fill="#005eb8"/>
 </g>
</svg>
